<?xml version="1.0" encoding="UTF-8" standalone="no"?>
<!-- Created with Inkscape (http://www.inkscape.org/) -->

<svg
   width="99.570091mm"
   height="99.570091mm"
   viewBox="0 0 99.570091 99.570091"
   version="1.1"
   id="svg1"
   inkscape:version="1.4.3 (0d15f75, 2025-12-25)"
   sodipodi:docname="knob.svg"
   xmlns:inkscape="http://www.inkscape.org/namespaces/inkscape"
   xmlns:sodipodi="http://sodipodi.sourceforge.net/DTD/sodipodi-0.dtd"
   xmlns:xlink="http://www.w3.org/1999/xlink"
   xmlns="http://www.w3.org/2000/svg"
   xmlns:svg="http://www.w3.org/2000/svg">
  <sodipodi:namedview
     id="namedview1"
     pagecolor="#ffffff"
     bordercolor="#000000"
     borderopacity="0.25"
     inkscape:showpageshadow="2"
     inkscape:pageopacity="0.0"
     inkscape:pagecheckerboard="0"
     inkscape:deskcolor="#d1d1d1"
     inkscape:document-units="mm"
     inkscape:zoom="2.0308884"
     inkscape:cx="164.21384"
     inkscape:cy="215.42296"
     inkscape:window-width="2560"
     inkscape:window-height="1080"
     inkscape:window-x="0"
     inkscape:window-y="0"
     inkscape:window-maximized="0"
     inkscape:current-layer="layer1" />
  <defs
     id="defs1">
    <linearGradient
       id="linearGradient10"
       inkscape:collect="always">
      <stop
         style="stop-color:#ffffff;stop-opacity:1;"
         offset="0"
         id="stop10" />
      <stop
         style="stop-color:#808080;stop-opacity:0;"
         offset="1"
         id="stop11" />
    </linearGradient>
    <inkscape:path-effect
       effect="bspline"
       id="path-effect4"
       is_visible="true"
       lpeversion="1.3"
       weight="33.333333"
       steps="2"
       helper_size="0"
       apply_no_weight="true"
       apply_with_weight="true"
       only_selected="false"
       uniform="false" />
    <radialGradient
       inkscape:collect="always"
       xlink:href="#linearGradient10"
       id="radialGradient11"
       cx="189.5722"
       cy="181.68364"
       fx="189.5722"
       fy="181.68364"
       r="79.388702"
       gradientTransform="matrix(0.32492484,0.18051378,-0.12821699,0.23079236,12.116416,-28.078419)"
       gradientUnits="userSpaceOnUse" />
  </defs>
  <g
     inkscape:label="Layer 1"
     inkscape:groupmode="layer"
     id="layer1"
     transform="translate(-0.12905079,-0.23697621)">
    <circle
       style="fill:#343434;fill-opacity:1;stroke:#555555;stroke-width:0.751191;stroke-opacity:1"
       id="path1"
       cx="49.914097"
       cy="50.022022"
       r="49.409451" />
    <path
       style="fill:#393939;fill-opacity:1;stroke:#b7b7b7;stroke-width:1;stroke-opacity:1"
       d="m 44.859608,12.398275 c 2.084473,-0.195419 5.775728,-0.238846 7.64307,-0.217133 1.867342,0.02171 1.910768,0.108566 3.083307,1.932517 1.172539,1.82395 3.474099,5.384855 6.926555,7.013346 3.452455,1.628492 8.055575,1.324513 10.422322,1.194233 2.366748,-0.130279 2.497024,-0.08685 3.626136,1.281109 1.129111,1.367963 3.256969,4.060353 4.38606,5.49343 1.129092,1.433078 1.259369,1.606782 0.716524,3.908432 -0.542844,2.30165 -1.758763,6.731069 -0.890203,10.422353 0.868561,3.691285 3.821506,6.644229 5.276295,8.229301 1.454789,1.585071 1.411363,1.8022 1.020517,3.517579 -0.390847,1.715379 -1.129083,4.928879 -1.563349,6.579087 -0.434266,1.650209 -0.564544,1.737061 -3.018191,2.14962 -2.453646,0.41256 -7.230471,1.150796 -9.44522,4.016998 -2.214749,2.866202 -1.867344,7.860151 -1.715351,10.400603 0.151993,2.540453 0.108565,2.627306 -1.324538,3.452426 -1.433102,0.825119 -4.255772,2.388444 -5.862558,3.191836 -1.606785,0.803391 -1.997615,0.846817 -4.147268,-0.456006 -2.149654,-1.302823 -6.057962,-3.951788 -9.922962,-3.88662 -3.865,0.06517 -7.686458,2.844409 -9.727507,4.234058 -2.04105,1.389649 -2.301604,1.389649 -3.539282,0.933661 C 35.566287,85.333118 33.351578,84.421179 32.135633,83.921773 30.919687,83.422367 30.702559,83.335516 30.311714,80.295598 29.92087,77.255681 29.356336,71.26294 26.576988,67.984231 23.79764,64.705522 18.803689,64.140988 16.328376,63.81529 c -2.475313,-0.325699 -2.431887,-0.412551 -2.757592,-1.7588 -0.325705,-1.346249 -1.020515,-3.951789 -1.411355,-5.406582 -0.39084,-1.454792 -0.477692,-1.75877 1.302832,-3.756427 1.780524,-1.997658 5.428281,-5.688841 6.296793,-9.83612 0.868511,-4.147279 -1.042218,-8.750399 -1.975887,-11.073721 -0.933669,-2.323321 -0.890249,-2.366741 -0.04341,-3.409001 0.846836,-1.042259 2.497011,-3.083264 3.387257,-4.125502 0.890246,-1.042237 1.020521,-1.085662 3.77816,-0.890239 2.757639,0.195424 8.14242,0.629681 11.399421,-1.042279 3.257002,-1.67196 4.386069,-5.449993 5.189465,-7.512756 0.803396,-2.062764 1.281078,-2.410169 3.365552,-2.605588 z"
       id="path4"
       inkscape:path-effect="#path-effect4"
       inkscape:original-d="m 43.252826,12.246282 c 3.691255,-0.04343 7.38251,-0.08685 11.073768,-0.130279 0.04343,0.08685 0.08685,0.173706 0.130278,0.260559 2.301652,3.561047 4.603213,7.121951 6.904818,10.682927 4.603305,-0.303992 9.206425,-0.607972 13.809638,-0.911957 0.130281,0.04343 0.260559,0.08685 0.390837,0.130279 2.127944,2.692499 4.255802,5.384889 6.383703,8.077334 0.130281,0.17371 0.260559,0.347414 0.390837,0.521118 -1.215967,4.429596 -2.431886,8.859015 -3.647829,13.288521 2.953065,2.953062 5.906008,5.906008 8.859015,8.859012 -0.04343,0.217138 -0.08686,0.434266 -0.130281,0.651399 -0.738267,3.213626 -1.476502,6.427126 -2.214753,9.640689 -0.130284,0.08685 -0.260559,0.173706 -0.39084,0.260559 -4.777012,0.738266 -9.553837,1.476502 -14.330754,2.214753 0.347419,4.994153 0.694825,9.988102 1.042236,14.982155 -0.04343,0.08685 -0.08685,0.173707 -0.130281,0.260559 -2.822778,1.563386 -5.645448,3.126711 -8.468172,4.690065 -0.390847,0.04343 -0.781677,0.08685 -1.172517,0.130281 -3.908467,-2.649072 -7.816775,-5.298038 -11.725163,-7.947057 -3.821613,2.779353 -7.643069,5.558597 -11.464605,8.337894 -0.260564,0 -0.521118,0 -0.781677,0 C 35.566286,85.333119 33.351578,84.42118 31.136825,83.509222 30.919687,83.422367 30.702559,83.335515 30.485426,83.248663 29.920869,77.255681 29.356335,71.26294 28.791791,65.270078 23.79764,64.705523 18.803689,64.140989 13.809637,63.576443 c 0.04343,-0.08685 0.08685,-0.173705 0.13028,-0.260559 -0.694838,-2.605643 -1.389649,-5.211183 -2.084473,-7.816776 -0.08686,-0.303991 -0.173707,-0.60797 -0.26056,-0.911955 3.647902,-3.691329 7.295658,-7.382513 10.943486,-11.073768 -1.910805,-4.603303 -3.821534,-9.206423 -5.732302,-13.809636 0.04343,-0.04343 0.08685,-0.08685 0.13028,-0.130281 1.650241,-2.041088 3.300416,-4.082093 4.950624,-6.12314 0.130283,-0.04343 0.26056,-0.08685 0.390839,-0.13028 5.384998,0.434274 10.769779,0.868531 16.154669,1.302796 1.129115,-3.778184 2.258182,-7.556217 3.38727,-11.334325 0.477703,-0.347419 0.955384,-0.694825 1.433076,-1.042237 z"
       transform="translate(0.6513978,-0.26055916)" />
    <circle
       style="fill:#ffffff;fill-opacity:1;stroke:#ffffff;stroke-width:1;stroke-opacity:1"
       id="path5"
       cx="50.027363"
       cy="16.806068"
       r="1.6936347" />
    <circle
       style="fill:#ffffff;fill-opacity:1;stroke:#ffffff;stroke-width:1;stroke-opacity:1"
       id="path6"
       cx="50.80904"
       cy="49.375965"
       r="20.584177" />
    <path
       style="fill:#808080;fill-opacity:1;stroke:#5d5d5d;stroke-width:0.492395;stroke-opacity:1"
       d="m 36.413148,84.504373 c -3.955571,-1.555215 -4.166393,-1.65455 -4.377353,-2.062501 -0.109456,-0.211664 -0.314431,-1.215961 -0.455502,-2.231768 -0.756036,-5.444085 -1.161716,-7.356007 -2.011516,-9.480008 -1.239409,-3.097805 -2.936313,-4.891714 -5.792751,-6.123903 -1.781668,-0.768561 -3.702216,-1.218321 -7.200597,-1.686258 -0.67834,-0.09074 -1.243977,-0.239847 -1.392109,-0.36699 -0.214589,-0.184182 -1.164356,-3.528177 -1.976461,-6.958836 -0.156824,-0.66249 0.108078,-1.157626 1.404146,-2.624534 4.997225,-5.655926 6.346356,-8.100562 6.522236,-11.818339 0.122818,-2.59614 -0.381752,-4.998376 -1.854504,-8.829223 -0.464517,-1.208278 -0.879278,-2.370378 -0.921692,-2.582444 -0.06969,-0.34843 0.117368,-0.622874 1.941716,-2.848859 1.110357,-1.354807 2.172684,-2.606899 2.360726,-2.782427 0.400533,-0.373878 0.517644,-0.377245 4.855391,-0.139602 4.394925,0.240776 7.473082,-0.138183 9.65014,-1.18805 0.65234,-0.314585 1.176789,-0.724642 2.049835,-1.602728 1.001255,-1.007036 1.280483,-1.390028 1.905087,-2.61306 0.402532,-0.788191 1.010558,-2.157658 1.351172,-3.043258 0.696576,-1.811124 1.138359,-2.421753 1.900605,-2.627005 0.832485,-0.224164 3.629821,-0.379888 6.896886,-0.383938 2.589763,-0.0032 3.11083,0.02819 3.359671,0.202489 0.161986,0.11346 0.811652,0.978952 1.443702,1.923316 3.478067,5.196686 6.192363,7.163367 10.826596,7.844555 1.218623,0.179127 2.146438,0.208758 4.971754,0.158781 2.583455,-0.0457 3.571658,-0.02019 3.85645,0.09956 0.352494,0.148212 3.956518,4.476457 5.675429,6.81589 0.758923,1.032894 0.768635,1.265372 0.162359,3.885962 -0.807464,3.490203 -0.906831,4.223782 -0.914345,6.750063 -0.0062,2.068944 0.02809,2.466128 0.290851,3.373594 0.71881,2.482442 1.897968,4.396406 4.451567,7.225622 1.674852,1.855621 1.956919,2.251459 1.958449,2.748386 0.0013,0.448651 -0.983226,4.847312 -1.660845,7.41971 -0.278752,1.058209 -0.428565,1.407377 -0.682803,1.591398 -0.199591,0.144465 -1.057137,0.36586 -2.214753,0.571783 -7.341629,1.305978 -10.032343,3.183368 -11.10797,7.750352 -0.269277,1.143317 -0.291497,1.548852 -0.291497,5.32022 v 4.082561 l -0.309927,0.251148 c -1.02784,0.832908 -7.393202,4.155707 -7.960932,4.155707 -0.482719,0 -1.410843,-0.457263 -3.470288,-1.709724 -3.513293,-2.136621 -5.786763,-2.975208 -8.344119,-3.077787 -3.13589,-0.125785 -5.262994,0.677246 -9.963362,3.761396 -1.761768,1.155986 -2.461038,1.54635 -2.765356,1.543738 -0.224023,-0.0019 -1.198761,-0.314666 -2.166086,-0.694989 z m 17.51684,-14.220137 c 5.635911,-0.84945 10.801229,-3.988794 14.043959,-8.535545 1.001572,-1.404342 2.405512,-4.133244 2.900593,-5.638009 0.8627,-2.622124 1.236112,-5.763625 1.000281,-8.415282 -0.268695,-3.021134 -0.852167,-5.101354 -2.177889,-7.764703 -1.831483,-3.679418 -4.501515,-6.571975 -8.061372,-8.733216 -6.432611,-3.905329 -15.220423,-3.905329 -21.653034,0 -2.459427,1.493155 -4.766612,3.607147 -6.338388,5.807641 -0.9911,1.387544 -2.40402,4.126434 -2.887667,5.597626 -2.057728,6.259351 -1.151501,13.080844 2.457005,18.494729 3.302894,4.955373 8.479009,8.265009 14.355202,9.178801 1.575358,0.244977 4.762283,0.248965 6.36131,0.008 z M 51.156009,18.732655 c 0.727131,-0.40867 1.081768,-1.040263 1.081768,-1.926587 0,-0.886323 -0.354637,-1.517916 -1.081768,-1.926586 -1.482193,-0.833039 -3.408537,0.255776 -3.408537,1.926586 0,1.672518 1.924831,2.760478 3.408537,1.926587 z"
       id="path7" />
    <path
       style="fill:url(#radialGradient11);fill-opacity:1;stroke:#5d5d5d;stroke-width:0.492395;stroke-opacity:1"
       d="M 47.161214,69.887697 C 39.685737,68.504956 33.502068,63.180677 31.126527,56.081475 30.398931,53.907086 30.152461,52.537264 30.069012,50.20406 c -0.15458,-4.322016 0.663609,-7.626122 2.807229,-11.336454 1.031049,-1.784614 1.782474,-2.747197 3.339841,-4.278373 3.276073,-3.220976 7.062104,-5.117666 11.596531,-5.809522 1.345581,-0.205306 4.656389,-0.204386 5.99286,0.0016 7.025902,1.083223 12.696055,5.278126 15.76138,11.660611 1.331428,2.772241 1.866783,4.939752 1.981525,8.02268 0.161073,4.327705 -0.629595,7.571877 -2.7672,11.354043 -2.731344,4.832697 -7.333414,8.277468 -13.070218,9.783408 -1.443488,0.378923 -1.655422,0.3995 -4.511077,0.437983 -2.235296,0.03012 -3.261175,-0.0086 -4.038669,-0.152405 z"
       id="path10" />
    <circle
       style="fill:#ffffff;fill-opacity:1;stroke:#ffffff;stroke-width:1;stroke-opacity:1"
       id="path11"
       cx="49.700436"
       cy="18.020142"
       r="4.4946461" />
  </g>
</svg>
